<?xml version="1.0" encoding="UTF-8"?>
<svg id="Layer_1" data-name="Layer 1" xmlns="http://www.w3.org/2000/svg" viewBox="0 0 780.63 185.24">
  <defs>
    <style>
      .cls-1 {
        fill: #fff;
      }
    </style>
  </defs>
  <g>
    <path class="cls-1" d="M98.68,65.95L2.89,88.97c-1.6.38-2.89-.6-2.89-2.2V26.69c0-1.6,1.29-3.2,2.89-3.59L98.68.08c1.6-.38,2.89.6,2.89,2.2v60.08c0,1.6-1.29,3.2-2.89,3.59Z"/>
    <path class="cls-1" d="M131.64,153.77L2.89,185.16c-1.6.38-2.89-.6-2.89-2.2v-77.61c0-1.6,1.29-3.2,2.89-3.59l128.75-31.38c1.6-.38,2.89.6,2.89,2.2v77.61c0,1.6-1.29,3.2-2.89,3.59Z"/>
  </g>
  <path class="cls-1" d="M224.28,129.42h-38.31c-.87,0-1.57-.7-1.57-1.57V42.99c0-.87.7-1.57,1.57-1.57h41.17c10.78.16,18.43,3.28,22.92,9.37,2.71,3.74,4.06,8.22,4.06,13.43s-1.35,9.69-4.06,12.95c-1.02,1.24-2.38,2.41-4.06,3.5-1.02.66-.94,2.16.14,2.71,3.15,1.6,5.61,3.79,7.41,6.56,2.29,3.54,3.43,7.84,3.43,12.89s-1.31,9.89-3.94,14.03c-1.67,2.75-3.76,5.05-6.27,6.92-2.83,2.15-6.16,3.62-10,4.42-3.84.8-8.01,1.19-12.51,1.19ZM232.99,73.9c2.39-1.43,3.58-4,3.58-7.7,0-4.1-1.59-6.81-4.78-8.12-2.75-.92-6.25-1.37-10.51-1.37h-17.77c-.87,0-1.57.7-1.57,1.57v16.26c0,.87.7,1.57,1.57,1.57h20.04c3.86,0,7-.74,9.43-2.21ZM223.86,90.68h-20.34c-.87,0-1.57.7-1.57,1.57v20.32c0,.87.7,1.57,1.57,1.57h20.04c3.86,0,6.87-.52,9.01-1.55,3.9-1.91,5.85-5.57,5.85-10.98,0-4.58-1.89-7.72-5.67-9.43-2.11-.96-5.07-1.45-8.9-1.49Z"/>
  <path class="cls-1" d="M283.62,42.46v12.56c0,.87-.7,1.57-1.57,1.57h-14.12c-.87,0-1.57-.7-1.57-1.57v-12.56c0-.87.7-1.57,1.57-1.57h14.12c.87,0,1.57.7,1.57,1.57ZM283.62,65.92v61.93c0,.87-.7,1.57-1.57,1.57h-14.12c-.87,0-1.57-.7-1.57-1.57v-61.93c0-.87.7-1.57,1.57-1.57h14.12c.87,0,1.57.7,1.57,1.57Z"/>
  <path class="cls-1" d="M330.55,131.15c-5.37,0-9.69-1.07-12.95-3.22-1.14-.74-2.33-1.81-3.58-3.21-.96-1.08-2.75-.42-2.75,1.03v2.1c0,.87-.7,1.57-1.57,1.57h-13.52c-.87,0-1.57-.7-1.57-1.57V43.11c0-.87.7-1.57,1.57-1.57h13.82c.87,0,1.57.7,1.57,1.57v25.33c0,1.41,1.72,2.11,2.69,1.09,1.39-1.47,2.86-2.68,4.41-3.63,3.06-1.99,6.96-2.98,11.7-2.98,8.56,0,15.25,3.08,20.09,9.25,4.84,6.17,7.25,14.13,7.25,23.88s-2.39,18.49-7.16,25.13c-4.78,6.65-11.44,9.97-20,9.97ZM339.86,97.84c0-4.62-.6-8.44-1.79-11.46-2.27-5.73-6.45-8.6-12.54-8.6s-10.41,2.81-12.72,8.42c-1.19,2.99-1.79,6.85-1.79,11.58,0,5.57,1.23,10.19,3.7,13.85,2.47,3.66,6.23,5.49,11.28,5.49,4.38,0,7.78-1.77,10.21-5.31,2.43-3.54,3.64-8.2,3.64-13.97Z"/>
  <path class="cls-1" d="M417.77,102.97v-59.98c0-.87.7-1.57,1.57-1.57h15.25c.87,0,1.57.7,1.57,1.57v59.68c0,7.48-1.29,13.41-3.88,17.79-4.38,7.4-12.28,11.1-23.7,11.1s-19.08-2.99-22.98-8.98c-3.9-5.99-5.85-14.16-5.85-24.5v-.46c0-.87.7-1.57,1.57-1.57h14.23c.87,0,1.57.7,1.57,1.57v.46c.16,6.81.91,11.59,2.24,14.36,1.33,2.77,4.19,4.15,8.57,4.15s7.2-1.51,8.6-4.54c.84-1.79,1.25-4.81,1.25-9.07Z"/>
  <path class="cls-1" d="M502.36,72.59c5.49,6.89,8.24,15.02,8.24,24.42s-2.75,17.72-8.24,24.5c-5.49,6.79-13.83,10.18-25.01,10.18s-19.52-3.39-25.01-10.18c-5.49-6.79-8.24-14.95-8.24-24.5s2.75-17.53,8.24-24.42c5.49-6.88,13.83-10.33,25.01-10.33s19.52,3.44,25.01,10.33ZM477.29,76.65c-4.97,0-8.8,1.76-11.49,5.28-2.69,3.52-4.03,8.55-4.03,15.07s1.34,11.56,4.03,15.1c2.69,3.54,6.52,5.31,11.49,5.31s8.79-1.77,11.46-5.31c2.67-3.54,4-8.58,4-15.1s-1.33-11.55-4-15.07c-2.67-3.52-6.49-5.28-11.46-5.28Z"/>
  <path class="cls-1" d="M559.62,120.23c-.16.2-.56.8-1.19,1.79-.64,1-1.39,1.87-2.27,2.63-2.67,2.39-5.24,4.02-7.73,4.9-2.49.88-5.4,1.31-8.75,1.31-9.63,0-16.12-3.46-19.46-10.39-1.87-3.82-2.81-9.45-2.81-16.89v-37.65c0-.87.7-1.57,1.57-1.57h14.29c.87,0,1.57.7,1.57,1.57v37.65c0,3.7.44,6.49,1.31,8.36,1.55,3.3,4.6,4.96,9.13,4.96,5.81,0,9.79-2.35,11.94-7.04,1.11-2.55,1.67-5.91,1.67-10.09v-33.83c0-.87.7-1.57,1.57-1.57h14.11c.87,0,1.57.7,1.57,1.57v61.93c0,.87-.7,1.57-1.57,1.57h-13.4c-.87,0-1.57-.7-1.57-1.57v-7.62Z"/>
  <path class="cls-1" d="M620.39,80.05c-6.85,0-11.44,2.23-13.79,6.69-1.31,2.51-1.97,6.37-1.97,11.58v29.53c0,.87-.7,1.57-1.57,1.57h-14c-.87,0-1.57-.7-1.57-1.57v-61.93c0-.87.7-1.57,1.57-1.57h13.1c.87,0,1.57.7,1.57,1.57v4.52c0,1.52,1.96,2.14,2.85.91,1.47-2.04,2.81-3.56,4.02-4.55,3.18-2.67,7.32-4,12.42-4,.32,0,.59.01.81.03,0,0,.01,0,.02,0,.81.07,1.44.75,1.44,1.56v14.23c0,.91-.78,1.64-1.69,1.56-.42-.03-.81-.06-1.18-.08-.83-.04-1.51-.06-2.03-.06Z"/>
  <path class="cls-1" d="M660.99,76.95c-5.77,0-9.73,2.45-11.88,7.34-1.12,2.59-1.67,5.89-1.67,9.91v33.65c0,.87-.7,1.57-1.57,1.57h-13.82c-.87,0-1.57-.7-1.57-1.57v-61.81c0-.87.7-1.57,1.57-1.57h13.28c.87,0,1.57.7,1.57,1.57v3.11c0,1.48,1.85,2.12,2.79.98,1.18-1.43,2.31-2.55,3.41-3.39,3.5-2.63,7.94-3.94,13.31-3.94,6.73,0,12.23,1.76,16.51,5.28,4.28,3.52,6.42,9.36,6.42,17.52v42.25c0,.87-.7,1.57-1.57,1.57h-14.29c-.87,0-1.57-.7-1.57-1.57v-38.01c0-3.42-.46-6.05-1.37-7.88-1.67-3.34-4.86-5.01-9.55-5.01Z"/>
  <path class="cls-1" d="M702.6,71.39c4.5-5.73,12.22-8.6,23.16-8.6,7.12,0,13.45,1.41,18.98,4.24,5.53,2.83,8.3,8.16,8.3,16v29.85c0,2.07.04,4.58.12,7.52.12,2.23.46,3.74,1.01,4.54.43.61,1.02,1.14,1.77,1.59.46.27.73.79.73,1.32h0c0,.87-.7,1.57-1.57,1.57h-15.84c-.68,0-1.28-.45-1.5-1.1-.31-.91-.53-1.78-.67-2.61-.04-.26-.09-.52-.13-.8-.18-1.22-1.66-1.76-2.58-.94-1.79,1.62-3.75,3.05-5.89,4.3-3.66,2.11-7.8,3.16-12.42,3.16-5.89,0-10.76-1.68-14.6-5.04-3.84-3.36-5.76-8.13-5.76-14.3,0-8,3.08-13.79,9.25-17.37,3.38-1.95,8.36-3.34,14.92-4.18l5.79-.72c3.14-.4,5.39-.9,6.75-1.49,2.43-1.03,3.64-2.65,3.64-4.84,0-2.67-.93-4.51-2.78-5.52s-4.57-1.52-8.15-1.52c-4.02,0-6.87,1-8.54,2.99-1,1.23-1.72,2.82-2.16,4.77-.16.7-.8,1.19-1.52,1.19h-13.41c-.94,0-1.67-.83-1.56-1.76.55-4.9,2.09-8.99,4.62-12.26ZM715.26,117.12c1.59,1.31,3.54,1.97,5.85,1.97,3.66,0,7.03-1.07,10.12-3.22,3.08-2.15,4.69-6.07,4.81-11.76v-3.7c0-1.15-1.19-1.89-2.24-1.41-.34.15-.68.3-1.01.43-1.09.42-2.6.81-4.51,1.16l-3.82.72c-3.58.64-6.15,1.41-7.7,2.33-2.63,1.55-3.94,3.96-3.94,7.22,0,2.91.81,4.99,2.45,6.27Z"/>
  <path class="cls-1" d="M765.19,41.43h13.88c.87,0,1.57.7,1.57,1.57v84.86c0,.87-.7,1.57-1.57,1.57h-13.88c-.87,0-1.57-.7-1.57-1.57V42.99c0-.87.7-1.57,1.57-1.57Z"/>
</svg>